<?xml version="1.0" encoding="UTF-8" standalone="no"?>
<svg
   width="163.96959mm"
   height="29.728981mm"
   viewBox="0 0 163.96959 29.728981"
   version="1.1"
   id="svg5"
   sodipodi:docname="flourish.svg"
   inkscape:version="1.1-alpha (17bc9184, 2021-03-28)"
   xmlns:inkscape="http://www.inkscape.org/namespaces/inkscape"
   xmlns:sodipodi="http://sodipodi.sourceforge.net/DTD/sodipodi-0.dtd"
   xmlns="http://www.w3.org/2000/svg"
   xmlns:svg="http://www.w3.org/2000/svg">
  <sodipodi:namedview
     id="namedview866"
     pagecolor="#ffffff"
     bordercolor="#666666"
     borderopacity="1.0"
     objecttolerance="10.0"
     gridtolerance="10.0"
     guidetolerance="10.0"
     inkscape:pageshadow="2"
     inkscape:pageopacity="0.0"
     inkscape:pagecheckerboard="0"
     inkscape:document-units="mm"
     showgrid="false"
     fit-margin-top="0"
     fit-margin-left="0"
     fit-margin-right="0"
     fit-margin-bottom="0"
     inkscape:zoom="0.74839286"
     inkscape:cx="42.090193"
     inkscape:cy="215.79575"
     inkscape:window-width="2560"
     inkscape:window-height="1387"
     inkscape:window-x="0"
     inkscape:window-y="25"
     inkscape:window-maximized="0"
     inkscape:current-layer="svg5" />
  <defs
     id="defs2" />
  <g
     id="layer1"
     transform="matrix(1.9200223,0,0,1,-152.91969,-91.594527)">
    <path
       style="fill:#404040;fill-opacity:0.666667;stroke-width:0.264583"
       d="m 115.47426,121.18449 c -0.40018,-0.126 -0.72761,-0.16528 -0.72761,-0.0873 0,0.078 -0.17337,-0.002 -0.38528,-0.17795 -0.21191,-0.17587 -0.48834,-0.25607 -0.61429,-0.17823 -0.12594,0.0778 -0.54788,-0.0239 -0.93763,-0.22612 -0.38975,-0.2022 -0.70863,-0.31242 -0.70863,-0.24494 0,0.21214 -1.37323,-0.76623 -2.29294,-1.63363 -0.48513,-0.45754 -0.88206,-0.96666 -0.88206,-1.13138 0,-0.16472 -0.13891,-0.29949 -0.30868,-0.29949 -0.16977,0 -0.23034,-0.0783 -0.13459,-0.17409 0.0958,-0.0957 0.052,-0.32127 -0.0973,-0.50115 -0.14929,-0.17989 -0.34385,-0.93846 -0.43235,-1.68572 -0.138,-1.16517 -0.61454,-2.20675 -0.61454,-1.3432 0,0.16269 -0.11906,0.22223 -0.26458,0.13229 -0.14552,-0.0899 -0.26459,-0.038 -0.26459,0.11532 0,0.43305 -5.14328,2.87015 -6.48229,3.07157 -0.14552,0.0219 -0.32411,0.067 -0.39687,0.10034 -0.24188,0.1107 -1.18343,0.32555 -1.71979,0.39243 -0.29105,0.0363 -0.72633,0.1544 -0.96731,0.26245 -1.12482,0.50434 -7.32946,0.20994 -8.04223,-0.38161 -0.16476,-0.13674 -0.37791,-0.17028 -0.47366,-0.0745 -0.0958,0.0958 -0.1741,0.0225 -0.1741,-0.16289 0,-0.18758 -0.1722,-0.27091 -0.3884,-0.18795 -0.21362,0.082 -0.45997,0.0332 -0.54745,-0.1083 -0.0875,-0.14154 -0.26988,-0.18884 -0.40535,-0.10512 -0.13546,0.0837 -0.2463,0.0191 -0.2463,-0.14359 0,-0.1627 -0.11472,-0.22491 -0.25493,-0.13825 -0.14021,0.0867 -0.48748,-0.075 -0.7717,-0.35922 -0.28422,-0.28422 -0.58622,-0.44731 -0.67111,-0.36242 -0.0849,0.0849 -0.15434,0.008 -0.15434,-0.16996 0,-0.17836 -0.0917,-0.26761 -0.20383,-0.19832 -0.46556,0.28773 -2.22362,-1.64904 -2.03534,-2.24225 0.15473,-0.48751 0.0988,-0.55386 -0.36442,-0.43271 -0.55631,0.14547 -1.45335,-0.82901 -1.45335,-1.57882 0,-0.18638 -0.10625,-0.33888 -0.23611,-0.33888 -0.12985,0 -0.16251,-0.11906 -0.0726,-0.26459 0.0899,-0.14552 0.0503,-0.26458 -0.088,-0.26458 -0.60874,0 -1.35891,-5.06094 -0.84241,-5.68328 0.17297,-0.20842 0.24984,-0.48359 0.1708,-0.61147 -0.18913,-0.30601 0.38794,-2.17192 0.67171,-2.17192 0.1211,0 0.22019,-0.184 0.22019,-0.4089 0,-0.22489 0.29765,-0.70655 0.66146,-1.07036 0.3638,-0.363799 0.66145,-0.766998 0.66145,-0.895995 0,-0.255361 1.58999,-1.460121 1.92788,-1.460788 0.11445,-2.26e-4 0.29305,-0.119473 0.39688,-0.264994 0.10383,-0.145521 0.36738,-0.303279 0.58566,-0.350573 0.21828,-0.04729 0.43656,-0.196122 0.48507,-0.330729 0.0485,-0.134607 0.25687,-0.24474 0.46302,-0.24474 0.20615,0 0.37483,-0.126089 0.37483,-0.280198 0,-0.154109 0.11906,-0.206614 0.26458,-0.116677 0.14552,0.08994 0.26458,0.05628 0.26458,-0.07479 0,-1.224574 10.10727,-1.750319 11.49577,-0.59797 0.17978,0.14921 0.40522,0.192948 0.50097,0.0972 0.0958,-0.09575 0.1741,-0.02816 0.1741,0.150202 0,0.178362 0.1156,0.25285 0.25689,0.165529 0.14129,-0.08732 0.51641,0.139715 0.83361,0.504527 0.3172,0.364812 0.67436,0.602955 0.79369,0.529206 0.11933,-0.07375 0.2964,0.198203 0.39349,0.604337 0.0971,0.406134 0.2843,0.875864 0.41603,1.043846 0.29261,0.373166 -0.0104,1.733337 -0.34069,1.529217 -0.12999,-0.0803 -0.23636,-0.02 -0.23636,0.13412 0,0.59741 -1.05804,0.28848 -1.07922,-0.315112 -0.0115,-0.327422 -0.0809,-0.446484 -0.15434,-0.264583 -0.0734,0.181901 -0.26243,0.330725 -0.42008,0.330725 -0.15765,0 -0.22176,-0.06487 -0.14247,-0.14416 0.94318,-0.94318 -3.63221,-2.627111 -5.67437,-2.088401 -0.69342,0.182922 -1.26077,0.275189 -1.26077,0.205038 0,-0.07015 -0.31371,0.11922 -0.69714,0.420823 -0.38342,0.301604 -0.83103,0.54837 -0.99468,0.54837 -0.16366,0 -0.44419,0.234799 -0.62341,0.521774 -0.21051,0.337093 -0.48342,0.461308 -0.77103,0.350942 -0.33795,-0.129684 -0.40426,-0.06417 -0.27527,0.271974 0.11318,0.29493 0.035,0.44281 -0.23426,0.44281 -0.2223,0 -0.33653,0.10946 -0.25385,0.24325 0.0827,0.13379 -0.0378,0.43145 -0.26786,0.66146 -0.23002,0.23001 -0.34712,0.41821 -0.26023,0.41821 0.0869,0 -0.0252,0.3542 -0.24904,0.78711 -0.76673,1.48269 -0.77785,4.25991 -0.026,6.48893 0.34495,1.02266 0.83279,1.98437 1.00658,1.98437 0.11362,0 0.20658,0.12706 0.20658,0.28235 0,0.32832 1.81679,2.0989 2.15368,2.0989 0.12516,0 0.22757,0.10592 0.22757,0.23538 0,0.12946 0.53578,0.39358 1.19063,0.58693 0.65484,0.19335 1.19062,0.43333 1.19062,0.53328 0,0.23153 2.92669,0.0167 4.53208,-0.33272 0.67364,-0.1466 1.38801,-0.29913 1.5875,-0.33896 0.19949,-0.0398 0.95802,-0.34372 1.68563,-0.67532 0.7276,-0.33161 1.47174,-0.6081 1.65364,-0.61443 0.18191,-0.006 0.33073,-0.0963 0.33073,-0.1999 0,-0.10362 0.38696,-0.3449 0.8599,-0.5362 0.47294,-0.19129 0.91943,-0.42725 0.99219,-0.52435 0.20695,-0.27618 1.96152,-1.15919 2.18281,-1.09852 0.10914,0.0299 0.19844,-0.0474 0.19844,-0.17185 0,-0.26876 3.01095,-2.41959 3.38718,-2.41959 0.1432,0 0.3318,-0.18614 0.4191,-0.41364 0.0873,-0.22751 0.27955,-0.33898 0.42721,-0.24772 0.30948,0.19127 1.11569,-0.51585 0.86919,-0.76235 -0.0901,-0.0901 0.0346,-0.16379 0.27718,-0.16379 0.24253,0 0.44279,-0.14882 0.44502,-0.33073 0.003,-0.22048 0.0896,-0.19843 0.26053,0.0661 0.18944,0.29313 0.25754,0.30548 0.26054,0.0472 0.005,-0.39817 0.77179,-1.23787 1.13096,-1.23787 0.13126,0 0.40766,-0.23111 0.61421,-0.51359 0.20655,-0.28247 0.37554,-0.4313 0.37554,-0.33073 0,0.10058 0.24247,-0.0596 0.53882,-0.35595 0.29635,-0.29635 0.67193,-0.45655 0.83463,-0.356 0.18048,0.11154 0.22176,0.063 0.10587,-0.12451 -0.1099,-0.17782 0.0122,-0.38325 0.28985,-0.4875 0.26389,-0.0991 0.59886,-0.32028 0.74438,-0.49153 0.4045,-0.476 3.79833,-2.764145 4.09984,-2.764145 0.14618,0 0.26578,-0.126089 0.26578,-0.280198 0,-0.154109 0.10659,-0.214324 0.23686,-0.133812 0.13027,0.08051 0.30513,-0.03152 0.38857,-0.248968 0.0834,-0.217445 0.33404,-0.395355 0.55689,-0.395355 0.22285,0 0.40518,-0.12609 0.40518,-0.280199 0,-0.154108 0.10315,-0.216447 0.22922,-0.13853 0.12608,0.07792 0.43831,-0.08937 0.69386,-0.371752 0.25556,-0.28238 0.98584,-0.712467 1.62286,-0.955748 0.63703,-0.243281 1.15823,-0.552243 1.15823,-0.686582 0,-0.134339 0.11906,-0.170668 0.26458,-0.08073 0.14552,0.08994 0.26458,0.01759 0.26458,-0.160774 0,-0.178363 0.0737,-0.25059 0.1638,-0.160506 0.0901,0.09008 0.3378,-0.01023 0.55049,-0.222918 0.21269,-0.212689 0.49617,-0.319055 0.62996,-0.236369 0.13379,0.08269 0.24325,0.01722 0.24325,-0.145475 0,-0.162697 0.11907,-0.222228 0.26459,-0.132291 0.14552,0.08994 0.26458,0.03743 0.26458,-0.116677 0,-0.154109 0.0893,-0.254903 0.19844,-0.223987 0.10914,0.03092 0.43656,-0.07623 0.7276,-0.238109 0.29104,-0.161876 0.76729,-0.335999 1.05834,-0.38694 0.29104,-0.05094 0.59386,-0.178911 0.67294,-0.284377 0.0791,-0.105465 0.37673,-0.227972 0.66146,-0.272237 0.28472,-0.04426 0.63785,-0.155648 0.78472,-0.247518 0.55916,-0.349762 3.5388,-1.00342 3.91535,-0.858928 0.21686,0.08322 0.47589,0.01928 0.57561,-0.142077 0.0997,-0.161361 0.40837,-0.221324 0.68586,-0.133251 0.27749,0.08807 0.65442,0.06733 0.83763,-0.0461 1.12199,-0.694678 10.49256,-0.0897 11.49485,0.742123 0.19119,0.158676 0.34762,0.220585 0.34762,0.137576 0,-0.268981 1.66301,0.374333 4.22208,1.633263 2.64952,1.303427 5.70646,3.794524 5.45633,4.44636 -0.0778,0.202844 0.037,0.356509 0.26641,0.356509 1.1106,0 2.59659,6.456502 1.72711,7.504162 -0.15964,0.19235 -0.22385,0.41614 -0.1427,0.49729 0.20026,0.20026 -1.42859,3.66803 -1.96876,4.19144 -0.23779,0.23042 -1.08282,1.15315 -1.87784,2.05052 -0.79502,0.89738 -1.59869,1.63159 -1.78593,1.63159 -0.18725,0 -0.34045,0.11906 -0.34045,0.26458 0,0.14552 -0.16867,0.26458 -0.37483,0.26458 -0.20615,0 -0.41451,0.0934 -0.46302,0.20748 -0.15619,0.36745 -4.0069,2.1359 -5.64444,2.59223 -3.17483,0.88473 -11.77396,0.73797 -11.77396,-0.20094 0,-0.15077 -0.1786,-0.2056 -0.39688,-0.12183 -0.21828,0.0838 -0.39687,0.0242 -0.39687,-0.1323 0,-0.15652 -0.16157,-0.22258 -0.35905,-0.1468 -0.58592,0.22483 -3.47464,-2.0388 -3.18985,-2.4996 0.0773,-0.12507 0.007,-0.2274 -0.15527,-0.2274 -0.1627,0 -0.22851,-0.1089 -0.14626,-0.24199 0.0823,-0.13309 0.0308,-0.28192 -0.11438,-0.33073 -0.36742,-0.12353 -0.60396,-2.79185 -0.266,-3.00072 0.14888,-0.092 0.20219,-0.27813 0.11847,-0.41359 -0.0837,-0.13547 -0.0261,-0.24631 0.12797,-0.24631 0.15411,0 0.2661,-0.0893 0.24887,-0.19843 -0.0885,-0.56059 0.0759,-0.8599 0.4723,-0.8599 0.24254,0 0.37228,-0.0687 0.28831,-0.15266 -0.27115,-0.27116 1.41247,-1.66666 2.40672,-1.99485 1.32035,-0.43584 4.53692,-0.37377 4.53692,0.0875 0,0.11433 0.25586,0.20788 0.56858,0.20788 0.71889,0 2.44231,1.7378 2.24175,2.26045 -0.0813,0.21196 -0.0284,0.38539 0.1177,0.38539 0.17095,0 0.16363,0.1905 -0.0205,0.53463 -0.15737,0.29405 -0.21393,0.65146 -0.12568,0.79425 0.17869,0.28913 -1.11244,0.86962 -1.4585,0.65574 -0.12088,-0.0747 -0.26769,0.008 -0.32624,0.18353 -0.0783,0.2349 -0.3612,0.19847 -1.06977,-0.13777 -0.81726,-0.38781 -0.93124,-0.54385 -0.75173,-1.02911 0.265,-0.71637 -0.15841,-1.88517 -0.83628,-2.30851 -0.57114,-0.35668 -2.16556,0.10187 -1.89219,0.54419 0.0795,0.12864 0.0438,0.23388 -0.0794,0.23388 -0.56183,0 -0.55599,3.28695 0.007,3.91167 0.22498,0.24968 0.49158,0.78458 0.59243,1.18867 0.14692,0.58864 0.25623,0.67426 0.54978,0.43062 0.20153,-0.16725 0.36641,-0.19397 0.36641,-0.0594 0,1.47574 5.83529,1.4452 8.89521,-0.0466 1.14675,-0.55906 2.16351,-1.02613 2.25947,-1.03793 0.096,-0.0118 0.43772,-0.35613 0.75946,-0.76516 0.34044,-0.43279 0.74333,-0.68293 0.96375,-0.59834 0.20832,0.0799 0.31106,0.0358 0.2283,-0.0981 -0.0828,-0.1339 0.11943,-0.43248 0.44928,-0.66352 0.32986,-0.23104 0.60261,-0.56661 0.60612,-0.74571 0.004,-0.1791 0.21059,-0.30931 0.46018,-0.28936 0.24958,0.02 0.39849,-0.0532 0.33091,-0.16254 -0.0676,-0.10935 0.15803,-0.78109 0.50135,-1.49277 1.38184,-2.86441 1.74645,-4.62896 1.34901,-6.52855 -0.36117,-1.72619 -1.8391,-4.949291 -2.26946,-4.949291 -0.12621,0 -0.16094,-0.178593 -0.0772,-0.396875 0.0893,-0.232618 0.004,-0.396878 -0.20674,-0.396882 -0.19747,-5e-6 -0.69361,-0.419328 -1.10254,-0.931831 -0.40892,-0.512502 -0.84683,-0.867958 -0.97313,-0.7899 -0.1263,0.07806 -0.30631,-0.09966 -0.40003,-0.394928 -0.0937,-0.295268 -0.25229,-0.486231 -0.3524,-0.424363 -0.1001,0.06187 -0.59755,-0.07305 -1.10543,-0.299813 -0.50788,-0.226766 -1.12483,-0.452443 -1.371,-0.501506 -0.24618,-0.04906 -0.92818,-0.254781 -1.51557,-0.457153 -0.72449,-0.249608 -1.94209,-0.339416 -3.78575,-0.279232 -2.93245,0.09573 -3.32193,0.14708 -5.42975,0.715927 -0.96464,0.260333 -1.39163,0.285664 -1.39747,0.0829 -0.005,-0.160585 -0.18323,-0.06086 -0.39688,0.221619 -0.21365,0.282475 -0.38846,0.416724 -0.38846,0.298332 0,-0.118392 -0.17338,-0.07137 -0.38528,0.1045 -0.21191,0.175867 -0.4994,0.249235 -0.63886,0.16304 -0.13947,-0.08619 -0.30392,-0.0071 -0.36544,0.17566 -0.0873,0.259434 -0.20973,0.251583 -0.55782,-0.03578 -0.38747,-0.319866 -0.42492,-0.313309 -0.2855,0.05 0.12129,0.316083 -0.10054,0.488425 -0.90882,0.706072 -0.5881,0.158359 -1.14205,0.405694 -1.23102,0.549634 -0.089,0.14394 -0.27257,0.193209 -0.40804,0.109487 -0.13547,-0.08372 -0.2463,-0.04422 -0.2463,0.08779 0,0.263921 -2.11532,1.286299 -2.44201,1.180278 -0.1121,-0.03638 -0.20383,0.03847 -0.20383,0.166338 0,0.127866 -0.38695,0.388997 -0.85989,0.580291 -0.47294,0.191294 -0.92056,0.434317 -0.99469,0.540052 -0.0741,0.105735 -0.30234,0.231557 -0.50712,0.279605 -0.20478,0.04805 -0.5906,0.295719 -0.85739,0.55038 -0.26679,0.254659 -0.66367,0.463019 -0.88195,0.463019 -0.21828,0 -0.39687,0.11906 -0.39687,0.26458 0,0.14553 -0.1786,0.26459 -0.39688,0.26459 -0.21828,0 -0.39687,0.11679 -0.39687,0.25954 0,0.14275 -0.29766,0.33425 -0.66146,0.42556 -0.3638,0.0913 -0.66146,0.27591 -0.66146,0.41022 0,0.13431 -0.20836,0.32375 -0.46302,0.42098 -0.25466,0.0972 -0.68746,0.38521 -0.96177,0.63996 -0.27432,0.25475 -0.88982,0.64876 -1.36779,0.87557 -0.47797,0.22681 -0.90837,0.50064 -0.95646,0.60851 -0.17714,0.39739 -2.05017,1.65132 -2.46663,1.65132 -0.23658,0 -0.36025,0.11309 -0.27483,0.25131 0.0854,0.13822 -0.0952,0.38536 -0.40128,0.5492 -0.53101,0.28418 -0.81434,0.50783 -2.1702,1.71304 -0.32742,0.29104 -0.668,0.50493 -0.75684,0.47532 -0.5104,-0.17013 -1.49337,2.74952 -1.30976,3.8903 0.27908,1.73403 1.1606,4.2292 1.49492,4.23142 0.15852,10e-4 0.6567,0.40684 1.10706,0.90176 0.7957,0.87441 1.89084,1.26158 3.7641,1.33074 2.22905,0.0823 4.03698,-4.36949 1.85208,-4.5605 -0.50932,-0.0445 -1.07487,-0.27564 -1.25677,-0.51359 -0.1819,-0.23795 -0.33073,-0.34184 -0.33073,-0.23087 0,0.11096 -0.19041,0.0113 -0.42315,-0.22139 -0.31318,-0.31319 -0.34816,-0.51351 -0.13458,-0.77085 0.15871,-0.19123 0.21355,-0.42271 0.12187,-0.51439 -0.15273,-0.15273 1.00342,-0.75983 1.62649,-0.85408 0.14552,-0.022 0.47956,-0.13308 0.7423,-0.24683 0.59979,-0.25966 2.93135,0.0426 3.05061,0.39553 0.0488,0.14443 0.19764,0.1953 0.33073,0.11304 0.13309,-0.0823 0.24198,0.0323 0.24198,0.25463 0,0.26829 0.14804,0.34738 0.44028,0.23524 0.2761,-0.10595 0.37533,-0.0639 0.26611,0.11287 -0.0958,0.155 0.0335,0.36233 0.28732,0.46074 0.42684,0.16547 0.42176,0.20884 -0.0677,0.57741 -0.52917,0.3985 -0.52917,0.3985 0,0.31183 0.93384,-0.15295 0.64723,3.30421 -0.3042,3.66931 -0.19482,0.0748 -0.31215,0.21275 -0.26072,0.30664 0.0514,0.0939 -0.30645,0.56104 -0.79527,1.0381 -0.48883,0.47705 -0.88877,0.78172 -0.88877,0.67703 0,-0.10469 -0.17481,0.0408 -0.38846,0.32325 -0.21365,0.28247 -0.39407,0.39452 -0.40093,0.249 -0.007,-0.14552 -0.11877,-0.0967 -0.24869,0.10858 -0.12992,0.20523 -0.51505,0.40367 -0.85584,0.44097 -0.34079,0.0373 -0.61962,0.0868 -0.61962,0.11011 0,0.35156 -4.01237,0.57532 -4.96094,0.27666 z"
       id="path1226" />
  </g>
</svg>
